HIERARCHY
ROOT hip
{
  OFFSET 5.70873 43.8894 -1.52928
  CHANNELS 6 Xposition Yposition Zposition Zrotation Xrotation Yrotation
  JOINT abdomen
  {
    OFFSET 0 5.99393 0.287273
    CHANNELS 6 Xposition Yposition Zposition Zrotation Xrotation Yrotation
    JOINT chest
    {
      OFFSET 0 6.65865 -0.856112
      CHANNELS 6 Xposition Yposition Zposition Zrotation Xrotation Yrotation
      JOINT neck
      {
        OFFSET 0 8.65624 -1.42685
        CHANNELS 6 Xposition Yposition Zposition Zrotation Xrotation Yrotation
        JOINT head
        {
          OFFSET 0 3.80999 -0.190247
          CHANNELS 6 Xposition Yposition Zposition Zrotation Xrotation Yrotation
          End Site
          {
            OFFSET 0 0 0
          }
        }
      }
      JOINT rCollar
      {
        OFFSET -1.4963 7.5744 -1.52136
        CHANNELS 6 Xposition Yposition Zposition Zrotation Xrotation Yrotation
        JOINT rShldr
        {
          OFFSET -5.47506 -0.905672 0.485692
          CHANNELS 6 Xposition Yposition Zposition Zrotation Xrotation Yrotation
          JOINT rForeArm
          {
            OFFSET -11.3069 -0.201091 0.618544
            CHANNELS 6 Xposition Yposition Zposition Zrotation Xrotation Yrotation
            JOINT rHand
            {
              OFFSET -9.61414 -0.254739 3.48553
              CHANNELS 6 Xposition Yposition Zposition Zrotation Xrotation Yrotation
              JOINT rThumb1
              {
                OFFSET 0.176263 -0.07068 1.26622
                CHANNELS 6 Xposition Yposition Zposition Zrotation Xrotation Yrotation
                JOINT rThumb2
                {
                  OFFSET -1.04683 -0.546484 1.82182
                  CHANNELS 6 Xposition Yposition Zposition Zrotation Xrotation Yrotation
                  JOINT rThumb3
                  {
                    OFFSET -0.993472 -0.621916 0.655506
                    CHANNELS 6 Xposition Yposition Zposition Zrotation Xrotation Yrotation
                    End Site
                    {
                      OFFSET -0.996134 -0.66263 0.644615
                    }
                  }
                }
              }
              JOINT rIndex1
              {
                OFFSET -2.64253 0.566363 2.4162
                CHANNELS 6 Xposition Yposition Zposition Zrotation Xrotation Yrotation
                JOINT rIndex2
                {
                  OFFSET -1.39394 -0.635138 0.899356
                  CHANNELS 6 Xposition Yposition Zposition Zrotation Xrotation Yrotation
                  JOINT rIndex3
                  {
                    OFFSET -0.622395 -0.856016 0.402182
                    CHANNELS 6 Xposition Yposition Zposition Zrotation Xrotation Yrotation
                    End Site
                    {
                      OFFSET -0.472476 -0.801802 0.34216
                    }
                  }
                }
              }
              JOINT rMid1
              {
                OFFSET -3.20814 0.514427 1.52547
                CHANNELS 6 Xposition Yposition Zposition Zrotation Xrotation Yrotation
                JOINT rMid2
                {
                  OFFSET -1.56545 -0.497974 0.68919
                  CHANNELS 6 Xposition Yposition Zposition Zrotation Xrotation Yrotation
                  JOINT rMid3
                  {
                    OFFSET -0.679943 -1.17582 0.444246
                    CHANNELS 6 Xposition Yposition Zposition Zrotation Xrotation Yrotation
                    End Site
                    {
                      OFFSET -0.343874 -0.941341 0.267611
                    }
                  }
                }
              }
              JOINT rRing1
              {
                OFFSET -3.47877 0.200518 0.597719
                CHANNELS 6 Xposition Yposition Zposition Zrotation Xrotation Yrotation
                JOINT rRing2
                {
                  OFFSET -1.28208 -0.53155 0.44672
                  CHANNELS 6 Xposition Yposition Zposition Zrotation Xrotation Yrotation
                  JOINT rRing3
                  {
                    OFFSET -0.710288 -0.970167 0.4032
                    CHANNELS 6 Xposition Yposition Zposition Zrotation Xrotation Yrotation
                    End Site
                    {
                      OFFSET -0.403228 -0.950952 0.378354
                    }
                  }
                }
              }
              JOINT rPinky1
              {
                OFFSET -3.42483 -0.278904 -0.240415
                CHANNELS 6 Xposition Yposition Zposition Zrotation Xrotation Yrotation
                JOINT rPinky2
                {
                  OFFSET -1.05787 -0.635999 0.156459
                  CHANNELS 6 Xposition Yposition Zposition Zrotation Xrotation Yrotation
                  JOINT rPinky3
                  {
                    OFFSET -0.42815 -0.754232 0.287187
                    CHANNELS 6 Xposition Yposition Zposition Zrotation Xrotation Yrotation
                    End Site
                    {
                      OFFSET -0.235717 -0.725605 0.279416
                    }
                  }
                }
              }
            }
          }
        }
      }
      JOINT lCollar
      {
        OFFSET 1.4963 7.5744 -1.52136
        CHANNELS 6 Xposition Yposition Zposition Zrotation Xrotation Yrotation
        JOINT lShldr
        {
          OFFSET 5.47506 -0.905672 0.485692
          CHANNELS 6 Xposition Yposition Zposition Zrotation Xrotation Yrotation
          JOINT lForeArm
          {
            OFFSET 11.3069 -0.201091 0.618544
            CHANNELS 6 Xposition Yposition Zposition Zrotation Xrotation Yrotation
            JOINT lHand
            {
              OFFSET 9.61414 -0.254739 3.48553
              CHANNELS 6 Xposition Yposition Zposition Zrotation Xrotation Yrotation
              JOINT lThumb1
              {
                OFFSET -0.176263 -0.07068 1.26622
                CHANNELS 6 Xposition Yposition Zposition Zrotation Xrotation Yrotation
                JOINT lThumb2
                {
                  OFFSET 1.04683 -0.546484 1.82182
                  CHANNELS 6 Xposition Yposition Zposition Zrotation Xrotation Yrotation
                  JOINT lThumb3
                  {
                    OFFSET 0.993472 -0.621916 0.655506
                    CHANNELS 6 Xposition Yposition Zposition Zrotation Xrotation Yrotation
                    End Site
                    {
                      OFFSET 0.996134 -0.66263 0.644615
                    }
                  }
                }
              }
              JOINT lIndex1
              {
                OFFSET 2.64253 0.566363 2.4162
                CHANNELS 6 Xposition Yposition Zposition Zrotation Xrotation Yrotation
                JOINT lIndex2
                {
                  OFFSET 1.39394 -0.635138 0.899356
                  CHANNELS 6 Xposition Yposition Zposition Zrotation Xrotation Yrotation
                  JOINT lIndex3
                  {
                    OFFSET 0.622395 -0.856016 0.402182
                    CHANNELS 6 Xposition Yposition Zposition Zrotation Xrotation Yrotation
                    End Site
                    {
                      OFFSET 0.472476 -0.801802 0.34216
                    }
                  }
                }
              }
              JOINT lMid1
              {
                OFFSET 3.20814 0.514427 1.52547
                CHANNELS 6 Xposition Yposition Zposition Zrotation Xrotation Yrotation
                JOINT lMid2
                {
                  OFFSET 1.56545 -0.497974 0.68919
                  CHANNELS 6 Xposition Yposition Zposition Zrotation Xrotation Yrotation
                  JOINT lMid3
                  {
                    OFFSET 0.679943 -1.17582 0.444246
                    CHANNELS 6 Xposition Yposition Zposition Zrotation Xrotation Yrotation
                    End Site
                    {
                      OFFSET 0.343874 -0.941341 0.267611
                    }
                  }
                }
              }
              JOINT lRing1
              {
                OFFSET 3.47877 0.200518 0.597719
                CHANNELS 6 Xposition Yposition Zposition Zrotation Xrotation Yrotation
                JOINT lRing2
                {
                  OFFSET 1.28208 -0.53155 0.44672
                  CHANNELS 6 Xposition Yposition Zposition Zrotation Xrotation Yrotation
                  JOINT lRing3
                  {
                    OFFSET 0.710288 -0.970167 0.4032
                    CHANNELS 6 Xposition Yposition Zposition Zrotation Xrotation Yrotation
                    End Site
                    {
                      OFFSET 0.403228 -0.950952 0.378354
                    }
                  }
                }
              }
              JOINT lPinky1
              {
                OFFSET 3.42483 -0.278904 -0.240415
                CHANNELS 6 Xposition Yposition Zposition Zrotation Xrotation Yrotation
                JOINT lPinky2
                {
                  OFFSET 1.05787 -0.635999 0.156459
                  CHANNELS 6 Xposition Yposition Zposition Zrotation Xrotation Yrotation
                  JOINT lPinky3
                  {
                    OFFSET 0.42815 -0.754232 0.287187
                    CHANNELS 6 Xposition Yposition Zposition Zrotation Xrotation Yrotation
                    End Site
                    {
                      OFFSET 0.235717 -0.725605 0.279416
                    }
                  }
                }
              }
            }
          }
        }
      }
    }
  }
  JOINT rThigh
  {
    OFFSET -4.17848 -1.02486 0.046356
    CHANNELS 6 Xposition Yposition Zposition Zrotation Xrotation Yrotation
    JOINT rShin
    {
      OFFSET 1.27155 -17.465 -0.237699
      CHANNELS 6 Xposition Yposition Zposition Zrotation Xrotation Yrotation
      JOINT rFoot
      {
        OFFSET 0.529163 -17.3815 -1.19582
        CHANNELS 6 Xposition Yposition Zposition Zrotation Xrotation Yrotation
        JOINT rToe
        {
          OFFSET -0.711591 -4.4863 4.0596
          CHANNELS 6 Xposition Yposition Zposition Zrotation Xrotation Yrotation
          End Site
          {
            OFFSET -0.869915 -1.10655 1.99006
          }
        }
      }
    }
  }
  JOINT lThigh
  {
    OFFSET 4.17848 -1.02486 0.046356
    CHANNELS 6 Xposition Yposition Zposition Zrotation Xrotation Yrotation
    JOINT lShin
    {
      OFFSET -1.27155 -17.465 -0.237699
      CHANNELS 6 Xposition Yposition Zposition Zrotation Xrotation Yrotation
      JOINT lFoot
      {
        OFFSET -0.529163 -17.3815 -1.19582
        CHANNELS 6 Xposition Yposition Zposition Zrotation Xrotation Yrotation
        JOINT lToe
        {
          OFFSET 0.711591 -4.4863 4.0596
          CHANNELS 6 Xposition Yposition Zposition Zrotation Xrotation Yrotation
          End Site
          {
            OFFSET 0.869915 -1.10655 1.99006
          }
        }
      }
    }
  }
}
MOTION
Frames:	4
Frame Time:	0.0333333
-16.9669 42.8646 -22.8224 -0.630002 6.11144 101.885 0 5.99393 0.287273 0.0307162 -3.58813 1.70441 3.55271e-015 6.65865 -0.856112 0.169178 -7.17387 3.42099 0 8.65624 -1.42685 -0.568415 13.6126 -8.57844 -3.55271e-015 3.80999 -0.190247 -6.32863 -1.1007 -8.81007 -1.4963 7.5744 -1.52136 -43.5815 -1.20659 5.58246 -5.47506 -0.905672 0.485692 -7.93999 -42.065 -3.65453 -11.3069 -0.201091 0.618544 2.05084 -34.9614 9.73002 -9.61414 -0.254739 3.48553 9.35739 -20.4719 -7.68021 0.176263 -0.07068 1.26622 -15.6871 50.412 18.5116 -1.04683 -0.546484 1.82182 -0.515952 0.557617 -1.56016 -0.993472 -0.621916 0.655506 -2.72965 3.35529 -8.82949 -2.64253 0.566363 2.4162 -23.6212 5.47091 -14.5209 -1.39394 -0.635138 0.899356 39.8961 7.70397 -8.81743 -0.622395 -0.856016 0.402182 39.2013 7.62941 -8.62656 -3.20814 0.514427 1.52547 -0.840494 5.94956 -9.82427 -1.56545 -0.497974 0.68919 52.7411 10.533 -13.0893 -0.679943 -1.17582 0.444246 44.481 9.78102 -10.5178 -3.47877 0.200518 0.597719 16.3707 -0.644969 -5.84618 -1.28208 -0.53155 0.44672 37.8363 9.71769 -10.3215 -0.710288 -0.970167 0.4032 39.1355 9.91105 -10.7659 -3.42483 -0.278904 -0.240415 24.5435 -1.90434 -2.26386 -1.05787 -0.635999 0.156459 31.0627 9.47575 -7.89032 -0.42815 -0.754232 0.287187 30.9985 9.46354 -7.86995 1.4963 7.5744 -1.52136 0.496451 0.856103 8.23861 5.47506 -0.905672 0.485692 -75.3947 -1.15723 30.8621 11.3069 -0.201091 0.618544 1.29096 6.76739 -11.9961 9.61414 -0.254739 3.48553 -21.6356 -37.5599 0.727017 -0.176263 -0.07068 1.26622 0.000278908 0.000328367 6.20236e-006 1.04683 -0.546484 1.82182 -0.000245959 -0.00023326 1.17963e-005 0.993472 -0.621916 0.655506 -0.000170012 3.84842e-005 1.37482e-005 2.64253 0.566363 2.4162 -9.31882e-005 -0.000127371 0.000177507 1.39394 -0.635138 0.899356 0.000356379 0.000136616 -6.8225e-006 0.622395 -0.856016 0.402182 -0.000179935 1.53849e-005 2.64664e-005 3.20814 0.514427 1.52547 2.09792 -0.815568 -0.831947 1.56545 -0.497974 0.68919 2.09897 -0.816078 -0.832353 0.679943 -1.17582 0.444246 2.09905 -0.816178 -0.832661 3.47877 0.200518 0.597719 2.14278 -3.85046 -5.50199 1.28208 -0.53155 0.44672 4.62103 -2.03844 -2.04494 0.710288 -0.970167 0.4032 4.6213 -2.03843 -2.04501 3.42483 -0.278904 -0.240415 11.3265 -5.70939 -4.60754 1.05787 -0.635999 0.156459 4.05249 -1.91414 -1.75639 0.42815 -0.754232 0.287187 2.84278 -1.32697 -1.24341 -4.17848 -1.02486 0.046356 -2.11617 -19.8279 44.8116 1.27155 -17.465 -0.237699 9.22921 39.7548 -1.78012 0.529163 -17.3815 -1.19582 -12.8341 8.82618 -21.2816 -0.711591 -4.4863 4.0596 25.3429 -2.83553 -8.17081 4.17848 -1.02486 0.046356 -20.3882 2.94082 -1.41122 -1.27155 -17.465 -0.237699 0.485595 -3.1636 0.93605 -0.529163 -17.3815 -1.19582 9.48157 0.314433 -6.29288 0.711591 -4.4863 4.0596 5.83441 4.89978 -1.08936 
-16.9676 42.8644 -22.8228 -0.626619 6.11109 101.885 0 5.99393 0.287273 0.0304583 -3.58641 1.70452 0 6.65865 -0.856112 0.168551 -7.17034 3.42104 3.55271e-015 8.65624 -1.42685 -0.567667 13.6095 -8.58099 0 3.80999 -0.190247 -6.3258 -1.09982 -8.81124 -1.4963 7.5744 -1.52136 -43.5412 -1.2045 5.56925 -5.47506 -0.905672 0.485692 -7.97814 -42.0843 -3.62716 -11.3069 -0.201091 0.618544 2.04007 -34.9393 9.69398 -9.61414 -0.254739 3.48553 9.36404 -20.4744 -7.66812 0.176263 -0.07068 1.26622 -15.6871 50.412 18.5117 -1.04683 -0.546484 1.82182 -0.515954 0.557617 -1.56016 -0.993472 -0.621916 0.655506 -2.72966 3.3553 -8.82948 -2.64253 0.566363 2.4162 -23.6212 5.47092 -14.5209 -1.39394 -0.635138 0.899356 39.8961 7.70399 -8.81744 -0.622395 -0.856016 0.402182 39.2013 7.62944 -8.62657 -3.20814 0.514427 1.52547 -0.8405 5.94957 -9.82427 -1.56545 -0.497974 0.68919 52.7411 10.533 -13.0893 -0.679943 -1.17582 0.444246 44.481 9.78104 -10.5178 -3.47877 0.200518 0.597719 16.3707 -0.644947 -5.84618 -1.28208 -0.53155 0.44672 37.8364 9.71769 -10.3215 -0.710288 -0.970167 0.4032 39.1355 9.91107 -10.7659 -3.42483 -0.278904 -0.240415 24.5434 -1.90434 -2.26386 -1.05787 -0.635999 0.156459 31.0627 9.47577 -7.89031 -0.42815 -0.754232 0.287187 30.9987 9.46347 -7.86996 1.4963 7.5744 -1.52136 0.495582 0.855977 8.23716 5.47506 -0.905672 0.485692 -75.4055 -1.15912 30.878 11.3069 -0.201091 0.618544 1.27979 6.76118 -12.0216 9.61414 -0.254739 3.48553 -21.6091 -37.5625 0.74821 -0.176263 -0.07068 1.26622 0.0014596 0.00121775 0.00330344 1.04683 -0.546484 1.82182 -0.00289749 -0.00102019 -0.00471238 0.993472 -0.621916 0.655506 0.00577974 0.0018188 0.0106239 2.64253 0.566363 2.4162 -0.00460434 0.00264244 0.00462893 1.39394 -0.635138 0.899356 -4.78072e-005 0.000273365 0.000142886 0.622395 -0.856016 0.402182 -0.00407706 0.00132596 0.00157566 3.20814 0.514427 1.52547 2.09423 -0.813024 -0.830008 1.56545 -0.497974 0.68919 2.09831 -0.815811 -0.832104 0.679943 -1.17582 0.444246 2.09528 -0.81468 -0.831189 3.47877 0.200518 0.597719 2.13935 -3.84818 -5.4991 1.28208 -0.53155 0.44672 4.6203 -2.03809 -2.04462 0.710288 -0.970167 0.4032 4.61692 -2.03641 -2.04312 3.42483 -0.278904 -0.240415 11.3199 -5.70614 -4.60563 1.05787 -0.635999 0.156459 4.05187 -1.91383 -1.75614 0.42815 -0.754232 0.287187 2.83891 -1.32512 -1.24175 -4.17848 -1.02486 0.046356 -2.11272 -19.8397 44.8119 1.27155 -17.465 -0.237699 9.2409 39.7779 -1.78898 0.529163 -17.3815 -1.19582 -12.8529 8.83379 -21.2619 -0.711591 -4.4863 4.0596 25.339 -2.83456 -8.16955 4.17848 -1.02486 0.046356 -20.3884 2.94334 -1.40965 -1.27155 -17.465 -0.237699 0.485544 -3.16359 0.936452 -0.529163 -17.3815 -1.19582 9.48529 0.314953 -6.29522 0.711591 -4.4863 4.0596 5.83422 4.89343 -1.08835 
-16.9774 42.8625 -22.8277 -0.579544 6.10616 101.888 0 5.99393 0.287273 0.0265847 -3.56225 1.70542 3.55271e-015 6.65865 -0.856112 0.160081 -7.12212 3.42245 0 8.65624 -1.42685 -0.55701 13.5663 -8.61697 0 3.80999 -0.190247 -6.28661 -1.08782 -8.82733 -1.4963 7.5744 -1.52136 -43.4228 -1.19803 5.53055 -5.47506 -0.905672 0.485692 -8.01399 -42.0867 -3.62315 -11.3069 -0.201091 0.618544 2.05755 -34.9434 9.74636 -9.61414 -0.254739 3.48553 9.34792 -20.4726 -7.65179 0.176263 -0.07068 1.26622 -15.6871 50.4121 18.5117 -1.04683 -0.546484 1.82182 -0.515962 0.557627 -1.56015 -0.993472 -0.621916 0.655506 -2.72965 3.35531 -8.82946 -2.64253 0.566363 2.4162 -23.6212 5.47097 -14.5209 -1.39394 -0.635138 0.899356 39.8961 7.70406 -8.81748 -0.622395 -0.856016 0.402182 39.2013 7.62949 -8.62658 -3.20814 0.514427 1.52547 -0.840491 5.94959 -9.82428 -1.56545 -0.497974 0.68919 52.7411 10.5331 -13.0893 -0.679943 -1.17582 0.444246 44.481 9.78111 -10.5178 -3.47877 0.200518 0.597719 16.3707 -0.644923 -5.84618 -1.28208 -0.53155 0.44672 37.8363 9.71775 -10.3215 -0.710288 -0.970167 0.4032 39.1355 9.91111 -10.7659 -3.42483 -0.278904 -0.240415 24.5435 -1.90432 -2.26387 -1.05787 -0.635999 0.156459 31.0627 9.47579 -7.89031 -0.42815 -0.754232 0.287187 30.9988 9.4634 -7.86996 1.4963 7.5744 -1.52136 0.483598 0.855823 8.21623 5.47506 -0.905672 0.485692 -75.2889 -1.13173 30.7889 11.3069 -0.201091 0.618544 1.27495 6.7033 -11.994 9.61414 -0.254739 3.48553 -21.6327 -37.5038 0.72684 -0.176263 -0.07068 1.26622 0.00262265 0.00211313 0.00657629 1.04683 -0.546484 1.82182 -0.00553737 -0.00180324 -0.00942306 0.993472 -0.621916 0.655506 0.0117451 0.00356622 0.0212397 2.64253 0.566363 2.4162 -0.00911463 0.00537039 0.00907332 1.39394 -0.635138 0.899356 -0.0150976 0.00532185 0.00615721 0.622395 -0.856016 0.402182 -0.00795463 0.00262063 0.00314485 3.20814 0.514427 1.52547 2.09054 -0.810457 -0.82809 1.56545 -0.497974 0.68919 2.08877 -0.81202 -0.828371 0.679943 -1.17582 0.444246 2.0915 -0.813182 -0.82972 3.47877 0.200518 0.597719 2.13592 -3.8459 -5.49621 1.28208 -0.53155 0.44672 4.60968 -2.03318 -2.04007 0.710288 -0.970167 0.4032 4.61252 -2.03437 -2.04124 3.42483 -0.278904 -0.240415 11.3132 -5.70285 -4.60374 1.05787 -0.635999 0.156459 4.03653 -1.91076 -1.75205 0.42815 -0.754232 0.287187 2.83502 -1.32325 -1.2401 -4.17848 -1.02486 0.046356 -2.06366 -20.0014 44.8157 1.27155 -17.465 -0.237699 9.39859 40.0967 -1.91008 0.529163 -17.3815 -1.19582 -13.1086 8.93795 -20.991 -0.711591 -4.4863 4.0596 25.3351 -2.83356 -8.16825 4.17848 -1.02486 0.046356 -20.3923 2.92854 -1.38352 -1.27155 -17.465 -0.237699 0.486088 -3.06442 0.941832 -0.529163 -17.3815 -1.19582 9.53498 0.272908 -6.32164 0.711591 -4.4863 4.0596 5.83403 4.88703 -1.08733 
-17.0147 42.8554 -22.8457 -0.399539 6.08631 101.898 -3.55271e-015 5.99393 0.287273 0.0122699 -3.46974 1.70856 0 6.65865 -0.856112 0.128818 -6.93767 3.42727 0 8.65624 -1.42685 -0.517148 13.4019 -8.75299 -3.55271e-015 3.80999 -0.190247 -6.13809 -1.04254 -8.88728 -1.4963 7.5744 -1.52136 -43.2298 -1.1877 5.46759 -5.47506 -0.905672 0.485692 -7.83642 -41.9283 -3.84386 -11.3069 -0.201091 0.618544 2.24537 -35.1557 10.3405 -9.61414 -0.254739 3.48553 9.20339 -20.443 -7.69981 0.176263 -0.07068 1.26622 -15.687 50.4119 18.5116 -1.04683 -0.546484 1.82182 -0.515963 0.55764 -1.56015 -0.993472 -0.621916 0.655506 -2.72969 3.35534 -8.82946 -2.64253 0.566363 2.4162 -23.6213 5.47104 -14.5208 -1.39394 -0.635138 0.899356 39.896 7.70396 -8.81741 -0.622395 -0.856016 0.402182 39.2013 7.62939 -8.62653 -3.20814 0.514427 1.52547 -0.84051 5.94962 -9.82426 -1.56545 -0.497974 0.68919 52.741 10.533 -13.0893 -0.679943 -1.17582 0.444246 44.4809 9.78102 -10.5178 -3.47877 0.200518 0.597719 16.3707 -0.644918 -5.8462 -1.28208 -0.53155 0.44672 37.8363 9.71779 -10.3215 -0.710288 -0.970167 0.4032 39.1355 9.91121 -10.7658 -3.42483 -0.278904 -0.240415 24.5434 -1.90428 -2.26388 -1.05787 -0.635999 0.156459 31.0627 9.47582 -7.89031 -0.42815 -0.754232 0.287187 30.999 9.46335 -7.86999 1.4963 7.5744 -1.52136 0.438184 0.855138 8.135 5.47506 -0.905672 0.485692 -74.865 -1.02864 30.4394 11.3069 -0.201091 0.618544 1.25873 6.47768 -11.8837 9.61414 -0.254739 3.48553 -21.6966 -37.2745 0.663973 -0.176263 -0.07068 1.26622 0.0113683 0.00876112 0.0318383 1.04683 -0.546484 1.82182 -0.00818489 -0.00258816 -0.0141503 0.993472 -0.621916 0.655506 0.0176912 0.00533337 0.0318514 2.64253 0.566363 2.4162 -0.0437666 0.0264286 0.0431662 1.39394 -0.635138 0.899356 -0.0300964 0.0103419 0.0121685 0.622395 -0.856016 0.402182 -0.0603248 0.0201438 0.0240799 3.20814 0.514427 1.52547 2.06223 -0.790812 -0.813311 1.56545 -0.497974 0.68919 2.04963 -0.796478 -0.813056 0.679943 -1.17582 0.444246 2.06256 -0.801697 -0.818427 3.47877 0.200518 0.597719 2.10821 -3.82359 -5.46975 1.28208 -0.53155 0.44672 4.5661 -2.01305 -2.02141 0.710288 -0.970167 0.4032 4.57879 -2.0188 -2.02682 3.42483 -0.278904 -0.240415 11.2567 -5.67421 -4.58676 1.05787 -0.635999 0.156459 4.00605 -1.89135 -1.7369 0.42815 -0.754232 0.287187 2.80531 -1.30901 -1.22738 -4.17848 -1.02486 0.046356 -1.87446 -20.5903 44.8222 1.27155 -17.465 -0.237699 9.94351 41.2721 -2.34366 0.529163 -17.3815 -1.19582 -14.0299 9.32834 -19.9847 -0.711591 -4.4863 4.0596 25.3311 -2.83256 -8.16699 4.17848 -1.02486 0.046356 -20.397 3.08097 -1.29354 -1.27155 -17.465 -0.237699 0.482866 -3.10672 0.962525 -0.529163 -17.3815 -1.19582 9.72709 0.322592 -6.44425 0.711591 -4.4863 4.0596 5.8323 4.8403 -1.07995 
